<svg aria-hidden="true" style="position: absolute; width: 0; height: 0; overflow: hidden;" version="1.1" xmlns="http://www.w3.org/2000/svg" xmlns:xlink="http://www.w3.org/1999/xlink">
<defs>
<symbol id="icon-minus" viewBox="0 0 32 32">
<path d="M0 13v6c0 0.552 0.448 1 1 1h30c0.552 0 1-0.448 1-1v-6c0-0.552-0.448-1-1-1h-30c-0.552 0-1 0.448-1 1z"></path>
</symbol>
<symbol id="icon-plus" viewBox="0 0 32 32">
<path d="M31 12h-11v-11c0-0.552-0.448-1-1-1h-6c-0.552 0-1 0.448-1 1v11h-11c-0.552 0-1 0.448-1 1v6c0 0.552 0.448 1 1 1h11v11c0 0.552 0.448 1 1 1h6c0.552 0 1-0.448 1-1v-11h11c0.552 0 1-0.448 1-1v-6c0-0.552-0.448-1-1-1z"></path>
</symbol>
<symbol id="icon-deletar" viewBox="0 0 32 32">
<path d="M4 10v20c0 1.1 0.9 2 2 2h18c1.1 0 2-0.9 2-2v-20h-22zM10 28h-2v-14h2v14zM14 28h-2v-14h2v14zM18 28h-2v-14h2v14zM22 28h-2v-14h2v14z"></path>
<path d="M26.5 4h-6.5v-2.5c0-0.825-0.675-1.5-1.5-1.5h-7c-0.825 0-1.5 0.675-1.5 1.5v2.5h-6.5c-0.825 0-1.5 0.675-1.5 1.5v2.5h26v-2.5c0-0.825-0.675-1.5-1.5-1.5zM18 4h-6v-1.975h6v1.975z"></path>
</symbol>
<symbol id="icon-rewind" viewBox="0 0 32 32">
<path d="M15.343 16l5.657 5.657-2.828 2.828-8.486-8.485 8.485-8.485 2.829 2.828-5.657 5.657z"></path>
</symbol>
<symbol id="icon-sign-out" viewBox="0 0 25 28">
<path d="M10 22.5c0 0.438 0.203 1.5-0.5 1.5h-5c-2.484 0-4.5-2.016-4.5-4.5v-11c0-2.484 2.016-4.5 4.5-4.5h5c0.266 0 0.5 0.234 0.5 0.5 0 0.438 0.203 1.5-0.5 1.5h-5c-1.375 0-2.5 1.125-2.5 2.5v11c0 1.375 1.125 2.5 2.5 2.5h4.5c0.391 0 1-0.078 1 0.5zM24.5 14c0 0.266-0.109 0.516-0.297 0.703l-8.5 8.5c-0.187 0.187-0.438 0.297-0.703 0.297-0.547 0-1-0.453-1-1v-4.5h-7c-0.547 0-1-0.453-1-1v-6c0-0.547 0.453-1 1-1h7v-4.5c0-0.547 0.453-1 1-1 0.266 0 0.516 0.109 0.703 0.297l8.5 8.5c0.187 0.187 0.297 0.438 0.297 0.703z"></path>
</symbol>
<symbol id="icon-file-text-o" viewBox="0 0 24 28">
<path d="M22.937 5.938c0.578 0.578 1.062 1.734 1.062 2.562v18c0 0.828-0.672 1.5-1.5 1.5h-21c-0.828 0-1.5-0.672-1.5-1.5v-25c0-0.828 0.672-1.5 1.5-1.5h14c0.828 0 1.984 0.484 2.562 1.062zM16 2.125v5.875h5.875c-0.094-0.266-0.234-0.531-0.344-0.641l-4.891-4.891c-0.109-0.109-0.375-0.25-0.641-0.344zM22 26v-16h-6.5c-0.828 0-1.5-0.672-1.5-1.5v-6.5h-12v24h20zM6 12.5c0-0.281 0.219-0.5 0.5-0.5h11c0.281 0 0.5 0.219 0.5 0.5v1c0 0.281-0.219 0.5-0.5 0.5h-11c-0.281 0-0.5-0.219-0.5-0.5v-1zM17.5 16c0.281 0 0.5 0.219 0.5 0.5v1c0 0.281-0.219 0.5-0.5 0.5h-11c-0.281 0-0.5-0.219-0.5-0.5v-1c0-0.281 0.219-0.5 0.5-0.5h11zM17.5 20c0.281 0 0.5 0.219 0.5 0.5v1c0 0.281-0.219 0.5-0.5 0.5h-11c-0.281 0-0.5-0.219-0.5-0.5v-1c0-0.281 0.219-0.5 0.5-0.5h11z"></path>
</symbol>
<symbol id="icon-credit-card" viewBox="0 0 30 28">
<path d="M27.5 2c1.375 0 2.5 1.125 2.5 2.5v19c0 1.375-1.125 2.5-2.5 2.5h-25c-1.375 0-2.5-1.125-2.5-2.5v-19c0-1.375 1.125-2.5 2.5-2.5h25zM2.5 4c-0.266 0-0.5 0.234-0.5 0.5v3.5h26v-3.5c0-0.266-0.234-0.5-0.5-0.5h-25zM27.5 24c0.266 0 0.5-0.234 0.5-0.5v-9.5h-26v9.5c0 0.266 0.234 0.5 0.5 0.5h25zM4 22v-2h4v2h-4zM10 22v-2h6v2h-6z"></path>
</symbol>
<symbol id="icon-user" viewBox="0 0 512 512">
<path d="M431,432c-11.046,0-20-8.954-20-20s8.954-20,20-20s20,8.954,20,20S442.046,432,431,432z M496.689,344.607c-8.561-19.15-27.845-31.558-49.176-31.607h-62.372c-0.045,0-0.087,0-0.133,0c-22.5,0-42.13,13.26-50.029,33.807 c-1.051,2.734-2.336,6.178-3.677,10.193H200.356c-5.407,0-10.583,2.189-14.35,6.068l-34.356,35.388 c-7.567,7.794-7.529,20.203,0.085,27.95l35,35.612c3.76,3.826,8.9,5.981,14.264,5.981h65c11.046,0,20-8.954,20-20s-8.954-20-20-20 h-56.614l-15.428-15.698L208.814,397h137.491c9.214,0,17.235-6.295,19.426-15.244c1.618-6.607,3.648-12.959,6.584-20.596 c1.936-5.036,6.798-8.16,12.741-8.16c0.013,0,0.026,0,0.039,0h62.371c5.656,0.013,10.524,3.053,12.705,7.932 c5.369,12.012,11.78,30.608,11.828,50.986c0.048,20.529-6.356,39.551-11.739,51.894c-2.17,4.978-7.079,8.188-12.56,8.188 c-0.011,0-0.022,0-0.033,0h-63.125c-5.533-0.013-10.716-3.573-12.896-8.858c-2.339-5.671-4.366-12.146-6.197-19.797 c-2.571-10.742-13.367-17.366-24.105-14.796c-10.743,2.571-17.367,13.364-14.796,24.106c2.321,9.699,4.978,18.118,8.121,25.738 c8.399,20.364,27.939,33.555,49.827,33.606h63.125c0.043,0,0.083,0,0.126,0c21.351-0.001,40.647-12.63,49.18-32.201 c6.912-15.851,15.137-40.511,15.072-67.975C511.935,384.434,503.638,360.153,496.689,344.607z M151.5,492c0,11.046-8.954,20-20,20 H60.693c-18.329,0-35.472-8.153-47.032-22.369C2.042,475.345-2.464,456.789,1.298,438.723 c12.003-57.657,43.8-110.126,89.532-147.743c24.942-20.516,53.442-36.064,83.813-46.062C141.492,220.092,120,180.509,120,136 C120,61.01,181.009,0,256,0s136,61.01,136,136c0,44.469-21.455,84.021-54.556,108.851c3.35,1.104,6.684,2.268,9.995,3.512 c10.341,3.883,15.576,15.414,11.693,25.754c-3.883,10.341-15.414,15.578-25.754,11.693c-23.107-8.677-47.383-13.35-72.236-13.917 c-1.708,0.064-3.42,0.107-5.142,0.107c-1.707,0-3.404-0.042-5.097-0.105c-101.636,2.364-189.676,75.219-210.445,174.98 c-1.297,6.229,0.248,12.613,4.236,17.519c2.31,2.841,7.461,7.606,15.999,7.606H131.5C142.546,472,151.5,480.954,151.5,492z M251.311,231.884c1.562-0.028,3.125-0.051,4.689-0.051c1.56,0,3.117,0.024,4.674,0.052C311.446,229.438,352,187.367,352,136 c0-52.935-43.065-96-96-96s-96,43.065-96,96C160,187.362,200.546,229.43,251.311,231.884z"></path>
</symbol>
<symbol id="icon-spinner" viewBox="0 0 32 32">
<path d="M15.949 0.001l-0-0.001c0 0-0.003 0-0.007 0.001-0.121 0.003-0.24 0.017-0.355 0.041-0.055 0.006-0.114 0.013-0.18 0.021-0.059 0.007-0.122 0.014-0.19 0.022-0.080 0.012-0.165 0.024-0.255 0.037-0.18 0.027-0.379 0.056-0.592 0.091-0.201 0.042-0.419 0.088-0.652 0.136-0.116 0.022-0.235 0.055-0.356 0.087s-0.247 0.065-0.375 0.099c-0.064 0.018-0.129 0.032-0.194 0.053s-0.13 0.041-0.197 0.062-0.268 0.085-0.406 0.129c-0.035 0.011-0.069 0.022-0.104 0.033-0.034 0.013-0.069 0.025-0.104 0.038-0.069 0.026-0.139 0.052-0.21 0.078-0.14 0.053-0.284 0.107-0.429 0.162-0.143 0.061-0.288 0.124-0.435 0.188-0.073 0.032-0.147 0.064-0.222 0.096s-0.147 0.071-0.221 0.107c-0.147 0.073-0.297 0.146-0.448 0.221-0.15 0.077-0.297 0.163-0.448 0.245-0.075 0.042-0.15 0.084-0.226 0.126s-0.148 0.091-0.223 0.136c-0.148 0.092-0.298 0.185-0.448 0.279-0.59 0.395-1.174 0.834-1.727 1.319-0.549 0.491-1.070 1.023-1.55 1.584-0.473 0.568-0.903 1.165-1.285 1.773-0.376 0.613-0.697 1.239-0.973 1.856-0.064 0.156-0.127 0.311-0.19 0.465-0.030 0.077-0.063 0.152-0.091 0.229s-0.054 0.154-0.081 0.23-0.108 0.302-0.156 0.453c-0.045 0.151-0.089 0.3-0.133 0.447-0.021 0.074-0.045 0.146-0.063 0.219s-0.036 0.146-0.053 0.218c-0.035 0.144-0.069 0.286-0.103 0.425-0.027 0.141-0.054 0.279-0.080 0.415-0.013 0.068-0.026 0.135-0.038 0.201-0.006 0.033-0.012 0.066-0.019 0.099-0.005 0.033-0.009 0.066-0.014 0.099-0.018 0.131-0.036 0.259-0.053 0.384-0.009 0.062-0.017 0.124-0.026 0.185s-0.012 0.122-0.018 0.182c-0.010 0.119-0.021 0.236-0.031 0.349s-0.022 0.222-0.023 0.329c-0 0.007-0 0.014-0.001 0.021-1.088 0.019-1.964 0.906-1.964 1.999 0 0.017 0.001 0.034 0.001 0.051h-0.001c0 0 0 0.003 0.001 0.007 0.003 0.121 0.017 0.24 0.041 0.355 0.006 0.055 0.013 0.114 0.021 0.18 0.007 0.059 0.014 0.122 0.022 0.19 0.012 0.080 0.024 0.165 0.037 0.256 0.027 0.18 0.056 0.379 0.091 0.592 0.042 0.201 0.088 0.419 0.136 0.652 0.022 0.116 0.056 0.235 0.087 0.356s0.065 0.247 0.099 0.375c0.018 0.064 0.032 0.129 0.053 0.194s0.041 0.13 0.062 0.197 0.085 0.268 0.129 0.406c0.011 0.035 0.022 0.069 0.033 0.104 0.013 0.034 0.025 0.069 0.038 0.104 0.026 0.069 0.052 0.139 0.078 0.21 0.053 0.14 0.107 0.284 0.162 0.429 0.062 0.143 0.124 0.288 0.188 0.436 0.032 0.073 0.064 0.147 0.096 0.222s0.071 0.147 0.107 0.221c0.073 0.147 0.146 0.297 0.221 0.448 0.077 0.15 0.163 0.297 0.245 0.448 0.042 0.075 0.084 0.15 0.126 0.226s0.091 0.148 0.136 0.223c0.092 0.148 0.185 0.298 0.279 0.448 0.395 0.59 0.834 1.174 1.319 1.727 0.491 0.549 1.023 1.070 1.584 1.55 0.568 0.473 1.165 0.903 1.773 1.285 0.613 0.376 1.239 0.697 1.855 0.973 0.156 0.064 0.311 0.127 0.465 0.19 0.077 0.030 0.152 0.064 0.229 0.091s0.154 0.054 0.23 0.081 0.302 0.108 0.453 0.156c0.151 0.045 0.3 0.089 0.447 0.133 0.074 0.021 0.146 0.045 0.219 0.063s0.146 0.036 0.218 0.053c0.144 0.035 0.286 0.069 0.425 0.103 0.141 0.027 0.279 0.054 0.415 0.080 0.068 0.013 0.135 0.026 0.201 0.038 0.033 0.006 0.066 0.012 0.099 0.019 0.033 0.005 0.066 0.009 0.099 0.014 0.131 0.018 0.259 0.036 0.384 0.053 0.062 0.009 0.124 0.017 0.185 0.026s0.122 0.012 0.182 0.018c0.119 0.011 0.236 0.021 0.349 0.031s0.222 0.021 0.329 0.023c0.017 0.001 0.033 0.001 0.049 0.002 0.005 1.101 0.898 1.992 2 1.992 0.017 0 0.034-0.001 0.051-0.001v0.001c0 0 0.003-0 0.007-0.001 0.121-0.003 0.24-0.017 0.355-0.041 0.055-0.006 0.114-0.013 0.18-0.021 0.059-0.007 0.122-0.014 0.19-0.022 0.080-0.012 0.165-0.024 0.256-0.037 0.18-0.027 0.379-0.056 0.592-0.091 0.201-0.042 0.419-0.088 0.652-0.136 0.116-0.022 0.235-0.055 0.357-0.087s0.247-0.065 0.375-0.099c0.064-0.018 0.129-0.032 0.194-0.053s0.13-0.041 0.197-0.062 0.268-0.085 0.406-0.129c0.034-0.011 0.069-0.022 0.104-0.033 0.034-0.013 0.069-0.025 0.104-0.038 0.069-0.026 0.139-0.052 0.21-0.078 0.141-0.053 0.284-0.107 0.429-0.162 0.143-0.061 0.288-0.124 0.436-0.188 0.073-0.032 0.147-0.064 0.222-0.096s0.147-0.071 0.221-0.107c0.147-0.073 0.297-0.146 0.448-0.221 0.15-0.077 0.297-0.163 0.448-0.245 0.075-0.042 0.15-0.084 0.226-0.126s0.148-0.091 0.223-0.136c0.148-0.092 0.298-0.185 0.448-0.279 0.59-0.395 1.174-0.834 1.727-1.319 0.549-0.491 1.070-1.023 1.55-1.584 0.473-0.568 0.903-1.165 1.285-1.773 0.376-0.613 0.697-1.239 0.973-1.855 0.064-0.156 0.127-0.311 0.19-0.465 0.030-0.077 0.064-0.152 0.091-0.229s0.054-0.154 0.081-0.23 0.108-0.302 0.156-0.453c0.045-0.151 0.089-0.3 0.133-0.447 0.021-0.074 0.045-0.146 0.063-0.219s0.036-0.146 0.053-0.218c0.035-0.144 0.069-0.286 0.103-0.425 0.027-0.141 0.054-0.279 0.080-0.415 0.013-0.068 0.026-0.135 0.038-0.201 0.006-0.033 0.012-0.066 0.019-0.099 0.005-0.033 0.009-0.066 0.014-0.099 0.018-0.131 0.036-0.259 0.053-0.384 0.009-0.062 0.017-0.124 0.026-0.185s0.012-0.122 0.018-0.182c0.011-0.119 0.021-0.236 0.031-0.349s0.021-0.222 0.023-0.329c0.001-0.027 0.002-0.052 0.003-0.078 1.087-0.020 1.962-0.907 1.962-1.999 0-0.017-0.001-0.034-0.001-0.051l0.001-0c0 0-0-0.003-0.001-0.007-0.003-0.121-0.017-0.24-0.041-0.355-0.006-0.055-0.013-0.114-0.021-0.181-0.007-0.059-0.014-0.122-0.022-0.19-0.012-0.080-0.024-0.165-0.037-0.255-0.027-0.18-0.056-0.379-0.091-0.592-0.042-0.201-0.088-0.419-0.136-0.652-0.022-0.116-0.056-0.235-0.087-0.356s-0.065-0.247-0.099-0.375c-0.018-0.064-0.032-0.129-0.053-0.194s-0.041-0.13-0.062-0.197-0.085-0.268-0.129-0.406c-0.011-0.034-0.022-0.069-0.033-0.104-0.013-0.034-0.025-0.069-0.038-0.104-0.026-0.069-0.052-0.139-0.078-0.21-0.053-0.14-0.107-0.284-0.162-0.429-0.061-0.143-0.124-0.288-0.188-0.435-0.032-0.073-0.064-0.147-0.096-0.222s-0.071-0.147-0.107-0.221c-0.073-0.147-0.146-0.297-0.221-0.448-0.077-0.15-0.163-0.297-0.245-0.448-0.042-0.075-0.084-0.15-0.126-0.226s-0.091-0.148-0.136-0.223c-0.092-0.148-0.185-0.298-0.279-0.448-0.395-0.59-0.834-1.174-1.319-1.727-0.491-0.549-1.023-1.070-1.584-1.55-0.568-0.473-1.165-0.903-1.773-1.285-0.613-0.376-1.239-0.697-1.855-0.973-0.156-0.064-0.311-0.127-0.465-0.19-0.077-0.030-0.152-0.063-0.229-0.091s-0.154-0.054-0.23-0.081-0.302-0.108-0.453-0.156c-0.151-0.045-0.3-0.089-0.447-0.132-0.074-0.021-0.146-0.045-0.219-0.063s-0.146-0.036-0.218-0.053c-0.144-0.035-0.286-0.069-0.425-0.103-0.141-0.027-0.279-0.054-0.415-0.080-0.068-0.013-0.135-0.026-0.201-0.038-0.033-0.006-0.066-0.012-0.099-0.019-0.033-0.005-0.066-0.009-0.099-0.014-0.131-0.018-0.259-0.036-0.384-0.053-0.062-0.009-0.124-0.017-0.185-0.026s-0.122-0.012-0.182-0.018c-0.119-0.010-0.236-0.021-0.349-0.031s-0.222-0.021-0.329-0.023c-0.017-0.001-0.034-0.001-0.051-0.002-0.035-1.074-0.916-1.934-1.998-1.934-0.017 0-0.034 0.001-0.051 0.001zM17.978 2.297c0.006 0.001 0.012 0.003 0.018 0.004 0.102 0.020 0.204 0.051 0.311 0.080s0.215 0.059 0.327 0.090c0.056 0.016 0.113 0.029 0.169 0.048s0.113 0.038 0.171 0.057 0.233 0.077 0.353 0.117c0.030 0.010 0.060 0.020 0.090 0.030 0.030 0.012 0.060 0.023 0.090 0.035 0.060 0.023 0.121 0.047 0.182 0.071 0.122 0.047 0.246 0.096 0.373 0.145 0.124 0.055 0.25 0.111 0.378 0.168 0.064 0.028 0.128 0.057 0.192 0.086s0.127 0.064 0.191 0.095c0.128 0.065 0.257 0.13 0.388 0.197 0.129 0.069 0.257 0.145 0.387 0.219 0.065 0.037 0.13 0.074 0.195 0.112s0.128 0.081 0.193 0.121c0.128 0.082 0.257 0.164 0.388 0.247 0.509 0.351 1.012 0.739 1.489 1.167 0.472 0.434 0.919 0.901 1.33 1.394 0.404 0.499 0.77 1.021 1.094 1.552 0.319 0.535 0.589 1.081 0.821 1.617 0.053 0.136 0.106 0.271 0.158 0.404 0.025 0.067 0.053 0.132 0.076 0.199s0.045 0.134 0.067 0.2 0.090 0.262 0.129 0.392c0.037 0.131 0.073 0.26 0.109 0.387 0.017 0.064 0.037 0.126 0.052 0.189s0.029 0.126 0.043 0.189c0.028 0.124 0.056 0.247 0.084 0.367 0.021 0.121 0.043 0.241 0.063 0.358 0.010 0.058 0.021 0.116 0.031 0.173 0.005 0.029 0.010 0.057 0.015 0.085 0.003 0.029 0.007 0.057 0.010 0.085 0.014 0.113 0.028 0.223 0.041 0.331 0.007 0.054 0.014 0.107 0.020 0.159s0.008 0.105 0.013 0.157c0.007 0.103 0.015 0.203 0.022 0.3s0.016 0.191 0.016 0.283c0.004 0.183 0.008 0.354 0.012 0.512-0.005 0.146-0.010 0.28-0.014 0.401-0.002 0.060-0.003 0.116-0.005 0.17-0.004 0.066-0.008 0.128-0.012 0.186-0.004 0.067-0.008 0.127-0.012 0.182-0.016 0.102-0.024 0.206-0.024 0.312 0 0.015 0.001 0.029 0.001 0.044-0 0.004-0 0.007-0 0.007h0.001c0.024 0.973 0.743 1.773 1.68 1.924-0.004 0.017-0.007 0.033-0.011 0.050-0.020 0.101-0.051 0.204-0.080 0.311s-0.059 0.215-0.090 0.327c-0.016 0.056-0.029 0.113-0.048 0.169s-0.038 0.113-0.057 0.171-0.077 0.233-0.117 0.353c-0.010 0.030-0.020 0.060-0.030 0.090-0.012 0.030-0.023 0.060-0.035 0.090-0.023 0.060-0.047 0.121-0.071 0.182-0.047 0.122-0.096 0.246-0.145 0.373-0.055 0.124-0.111 0.25-0.169 0.378-0.028 0.064-0.057 0.128-0.086 0.192s-0.064 0.127-0.095 0.191c-0.065 0.128-0.13 0.257-0.197 0.388-0.069 0.13-0.145 0.257-0.219 0.387-0.037 0.065-0.074 0.13-0.112 0.195s-0.081 0.128-0.121 0.193c-0.082 0.128-0.164 0.257-0.247 0.388-0.351 0.509-0.738 1.012-1.167 1.489-0.434 0.472-0.901 0.919-1.394 1.33-0.499 0.404-1.021 0.77-1.552 1.094-0.535 0.319-1.081 0.589-1.617 0.821-0.136 0.053-0.271 0.106-0.404 0.158-0.067 0.025-0.132 0.053-0.199 0.076s-0.134 0.045-0.2 0.067-0.262 0.090-0.392 0.129c-0.131 0.037-0.26 0.073-0.387 0.109-0.064 0.017-0.126 0.037-0.189 0.052s-0.126 0.029-0.189 0.043c-0.124 0.028-0.247 0.056-0.367 0.084-0.122 0.021-0.241 0.043-0.358 0.063-0.058 0.010-0.116 0.020-0.173 0.031-0.029 0.005-0.057 0.010-0.085 0.015-0.029 0.003-0.057 0.007-0.085 0.010-0.113 0.014-0.223 0.028-0.331 0.041-0.054 0.007-0.107 0.014-0.159 0.020s-0.105 0.008-0.157 0.013c-0.103 0.007-0.203 0.015-0.3 0.022s-0.191 0.016-0.283 0.016c-0.183 0.004-0.354 0.008-0.512 0.012-0.146-0.005-0.28-0.010-0.401-0.014-0.060-0.002-0.116-0.003-0.17-0.005-0.066-0.004-0.128-0.008-0.186-0.012-0.067-0.004-0.127-0.008-0.182-0.012-0.102-0.016-0.206-0.024-0.312-0.024-0.015 0-0.029 0.001-0.044 0.001-0.004-0-0.007-0-0.007-0v0.001c-0.961 0.024-1.754 0.726-1.918 1.646-0.009-0.002-0.018-0.004-0.028-0.006-0.101-0.020-0.204-0.051-0.311-0.080s-0.215-0.059-0.327-0.090c-0.056-0.016-0.113-0.029-0.169-0.048s-0.113-0.038-0.171-0.057-0.233-0.077-0.353-0.117c-0.030-0.010-0.060-0.020-0.090-0.030-0.030-0.012-0.060-0.023-0.090-0.035-0.060-0.023-0.121-0.047-0.182-0.071-0.122-0.047-0.246-0.096-0.373-0.145-0.124-0.055-0.25-0.111-0.377-0.169-0.064-0.028-0.128-0.057-0.192-0.086s-0.127-0.064-0.191-0.095c-0.128-0.065-0.257-0.13-0.388-0.197-0.129-0.069-0.257-0.145-0.387-0.219-0.065-0.037-0.13-0.074-0.196-0.112s-0.128-0.081-0.193-0.121c-0.128-0.082-0.257-0.164-0.388-0.247-0.509-0.351-1.012-0.738-1.489-1.167-0.472-0.434-0.919-0.901-1.33-1.394-0.404-0.499-0.77-1.021-1.094-1.552-0.319-0.535-0.589-1.081-0.821-1.617-0.053-0.136-0.106-0.271-0.158-0.404-0.025-0.067-0.053-0.132-0.076-0.199s-0.045-0.134-0.067-0.2-0.090-0.262-0.129-0.392c-0.037-0.131-0.073-0.26-0.109-0.387-0.017-0.064-0.037-0.126-0.052-0.189s-0.029-0.126-0.043-0.189c-0.028-0.124-0.056-0.247-0.084-0.367-0.021-0.122-0.043-0.241-0.063-0.358-0.010-0.058-0.021-0.116-0.031-0.173-0.005-0.029-0.010-0.057-0.015-0.085-0.003-0.029-0.007-0.057-0.010-0.085-0.014-0.113-0.028-0.223-0.041-0.331-0.007-0.054-0.013-0.107-0.020-0.159s-0.008-0.105-0.013-0.157c-0.007-0.103-0.015-0.203-0.022-0.3s-0.016-0.191-0.016-0.283c-0.004-0.183-0.008-0.354-0.012-0.512 0.005-0.146 0.010-0.28 0.014-0.401 0.002-0.060 0.003-0.116 0.005-0.17 0.004-0.066 0.008-0.128 0.012-0.186 0.004-0.067 0.008-0.127 0.012-0.182 0.016-0.102 0.024-0.206 0.024-0.312 0-0.015-0.001-0.029-0.001-0.044 0-0.004 0-0.007 0-0.007h-0.001c-0.024-0.969-0.737-1.766-1.668-1.921 0.020-0.1 0.050-0.201 0.079-0.306 0.029-0.106 0.059-0.215 0.090-0.327 0.016-0.056 0.029-0.113 0.048-0.169s0.038-0.113 0.057-0.171 0.077-0.233 0.117-0.353c0.010-0.030 0.020-0.060 0.030-0.090 0.012-0.030 0.023-0.060 0.035-0.090 0.023-0.060 0.047-0.121 0.071-0.182 0.048-0.122 0.096-0.246 0.145-0.373 0.055-0.124 0.111-0.25 0.168-0.377 0.028-0.064 0.057-0.128 0.086-0.192s0.064-0.127 0.095-0.191c0.065-0.128 0.13-0.257 0.197-0.388 0.069-0.13 0.145-0.257 0.219-0.387 0.037-0.065 0.074-0.13 0.112-0.195s0.081-0.128 0.121-0.193c0.082-0.128 0.164-0.257 0.247-0.388 0.351-0.509 0.739-1.012 1.167-1.489 0.434-0.472 0.901-0.919 1.394-1.33 0.499-0.404 1.021-0.77 1.552-1.094 0.535-0.319 1.081-0.589 1.617-0.821 0.136-0.053 0.271-0.106 0.404-0.158 0.067-0.025 0.132-0.053 0.199-0.076s0.134-0.045 0.2-0.067 0.262-0.090 0.392-0.129c0.131-0.037 0.26-0.073 0.387-0.109 0.064-0.017 0.126-0.037 0.189-0.052s0.126-0.029 0.189-0.043 0.247-0.056 0.367-0.084c0.121-0.021 0.241-0.043 0.358-0.063 0.058-0.010 0.116-0.021 0.173-0.031 0.029-0.005 0.057-0.010 0.085-0.015 0.029-0.003 0.057-0.007 0.085-0.010 0.113-0.014 0.223-0.028 0.331-0.041 0.054-0.007 0.107-0.013 0.159-0.020s0.105-0.008 0.157-0.013c0.103-0.007 0.203-0.015 0.3-0.022s0.191-0.016 0.283-0.016c0.183-0.004 0.354-0.008 0.512-0.012 0.146 0.005 0.28 0.010 0.4 0.014 0.060 0.002 0.116 0.003 0.17 0.005 0.066 0.004 0.128 0.008 0.186 0.012 0.066 0.004 0.127 0.008 0.182 0.012 0.102 0.015 0.206 0.024 0.312 0.024 0.015 0 0.029-0.001 0.044-0.001 0.004 0 0.007 0.001 0.007 0.001v-0.001c0.981-0.024 1.786-0.754 1.927-1.701z"></path>
</symbol>
</defs>
</svg>
