<svg aria-hidden="true" style="position: absolute; width: 0; height: 0; overflow: hidden;" version="1.1" xmlns="http://www.w3.org/2000/svg" xmlns:xlink="http://www.w3.org/1999/xlink">
<defs>
<symbol id="icon-minus" viewBox="0 0 32 32">
<path d="M0 13v6c0 0.552 0.448 1 1 1h30c0.552 0 1-0.448 1-1v-6c0-0.552-0.448-1-1-1h-30c-0.552 0-1 0.448-1 1z"></path>
</symbol>
<symbol id="icon-plus" viewBox="0 0 32 32">
<path d="M31 12h-11v-11c0-0.552-0.448-1-1-1h-6c-0.552 0-1 0.448-1 1v11h-11c-0.552 0-1 0.448-1 1v6c0 0.552 0.448 1 1 1h11v11c0 0.552 0.448 1 1 1h6c0.552 0 1-0.448 1-1v-11h11c0.552 0 1-0.448 1-1v-6c0-0.552-0.448-1-1-1z"></path>
</symbol>
<symbol id="icon-deletar" viewBox="0 0 32 32">
<path d="M4 10v20c0 1.1 0.9 2 2 2h18c1.1 0 2-0.9 2-2v-20h-22zM10 28h-2v-14h2v14zM14 28h-2v-14h2v14zM18 28h-2v-14h2v14zM22 28h-2v-14h2v14z"></path>
<path d="M26.5 4h-6.5v-2.5c0-0.825-0.675-1.5-1.5-1.5h-7c-0.825 0-1.5 0.675-1.5 1.5v2.5h-6.5c-0.825 0-1.5 0.675-1.5 1.5v2.5h26v-2.5c0-0.825-0.675-1.5-1.5-1.5zM18 4h-6v-1.975h6v1.975z"></path>
</symbol>
<symbol id="icon-rewind" viewBox="0 0 32 32">
<path d="M15.343 16l5.657 5.657-2.828 2.828-8.486-8.485 8.485-8.485 2.829 2.828-5.657 5.657z"></path>
</symbol>
<symbol id="icon-sign-out" viewBox="0 0 25 28">
<path d="M10 22.5c0 0.438 0.203 1.5-0.5 1.5h-5c-2.484 0-4.5-2.016-4.5-4.5v-11c0-2.484 2.016-4.5 4.5-4.5h5c0.266 0 0.5 0.234 0.5 0.5 0 0.438 0.203 1.5-0.5 1.5h-5c-1.375 0-2.5 1.125-2.5 2.5v11c0 1.375 1.125 2.5 2.5 2.5h4.5c0.391 0 1-0.078 1 0.5zM24.5 14c0 0.266-0.109 0.516-0.297 0.703l-8.5 8.5c-0.187 0.187-0.438 0.297-0.703 0.297-0.547 0-1-0.453-1-1v-4.5h-7c-0.547 0-1-0.453-1-1v-6c0-0.547 0.453-1 1-1h7v-4.5c0-0.547 0.453-1 1-1 0.266 0 0.516 0.109 0.703 0.297l8.5 8.5c0.187 0.187 0.297 0.438 0.297 0.703z"></path>
</symbol>
<symbol id="icon-file-text-o" viewBox="0 0 24 28">
<path d="M22.937 5.938c0.578 0.578 1.062 1.734 1.062 2.562v18c0 0.828-0.672 1.5-1.5 1.5h-21c-0.828 0-1.5-0.672-1.5-1.5v-25c0-0.828 0.672-1.5 1.5-1.5h14c0.828 0 1.984 0.484 2.562 1.062zM16 2.125v5.875h5.875c-0.094-0.266-0.234-0.531-0.344-0.641l-4.891-4.891c-0.109-0.109-0.375-0.25-0.641-0.344zM22 26v-16h-6.5c-0.828 0-1.5-0.672-1.5-1.5v-6.5h-12v24h20zM6 12.5c0-0.281 0.219-0.5 0.5-0.5h11c0.281 0 0.5 0.219 0.5 0.5v1c0 0.281-0.219 0.5-0.5 0.5h-11c-0.281 0-0.5-0.219-0.5-0.5v-1zM17.5 16c0.281 0 0.5 0.219 0.5 0.5v1c0 0.281-0.219 0.5-0.5 0.5h-11c-0.281 0-0.5-0.219-0.5-0.5v-1c0-0.281 0.219-0.5 0.5-0.5h11zM17.5 20c0.281 0 0.5 0.219 0.5 0.5v1c0 0.281-0.219 0.5-0.5 0.5h-11c-0.281 0-0.5-0.219-0.5-0.5v-1c0-0.281 0.219-0.5 0.5-0.5h11z"></path>
</symbol>
<symbol id="icon-credit-card" viewBox="0 0 30 28">
<path d="M27.5 2c1.375 0 2.5 1.125 2.5 2.5v19c0 1.375-1.125 2.5-2.5 2.5h-25c-1.375 0-2.5-1.125-2.5-2.5v-19c0-1.375 1.125-2.5 2.5-2.5h25zM2.5 4c-0.266 0-0.5 0.234-0.5 0.5v3.5h26v-3.5c0-0.266-0.234-0.5-0.5-0.5h-25zM27.5 24c0.266 0 0.5-0.234 0.5-0.5v-9.5h-26v9.5c0 0.266 0.234 0.5 0.5 0.5h25zM4 22v-2h4v2h-4zM10 22v-2h6v2h-6z"></path>
</symbol>

</defs>
</svg>
