<svg aria-hidden="true" style="position: absolute; width: 0; height: 0; overflow: hidden;" version="1.1" xmlns="http://www.w3.org/2000/svg" xmlns:xlink="http://www.w3.org/1999/xlink">
<defs>
<symbol id="icon-minus" viewBox="0 0 32 32">
<path d="M0 13v6c0 0.552 0.448 1 1 1h30c0.552 0 1-0.448 1-1v-6c0-0.552-0.448-1-1-1h-30c-0.552 0-1 0.448-1 1z"></path>
</symbol>
<symbol id="icon-plus" viewBox="0 0 32 32">
<path d="M31 12h-11v-11c0-0.552-0.448-1-1-1h-6c-0.552 0-1 0.448-1 1v11h-11c-0.552 0-1 0.448-1 1v6c0 0.552 0.448 1 1 1h11v11c0 0.552 0.448 1 1 1h6c0.552 0 1-0.448 1-1v-11h11c0.552 0 1-0.448 1-1v-6c0-0.552-0.448-1-1-1z"></path>
</symbol>
<symbol id="icon-deletar" viewBox="0 0 32 32">
<path d="M4 10v20c0 1.1 0.9 2 2 2h18c1.1 0 2-0.9 2-2v-20h-22zM10 28h-2v-14h2v14zM14 28h-2v-14h2v14zM18 28h-2v-14h2v14zM22 28h-2v-14h2v14z"></path>
<path d="M26.5 4h-6.5v-2.5c0-0.825-0.675-1.5-1.5-1.5h-7c-0.825 0-1.5 0.675-1.5 1.5v2.5h-6.5c-0.825 0-1.5 0.675-1.5 1.5v2.5h26v-2.5c0-0.825-0.675-1.5-1.5-1.5zM18 4h-6v-1.975h6v1.975z"></path>
</symbol>
<symbol id="icon-rewind" viewBox="0 0 32 32">
<path d="M15.343 16l5.657 5.657-2.828 2.828-8.486-8.485 8.485-8.485 2.829 2.828-5.657 5.657z"></path>
</symbol>
<symbol id="icon-sign-out" viewBox="0 0 25 28">
<path d="M10 22.5c0 0.438 0.203 1.5-0.5 1.5h-5c-2.484 0-4.5-2.016-4.5-4.5v-11c0-2.484 2.016-4.5 4.5-4.5h5c0.266 0 0.5 0.234 0.5 0.5 0 0.438 0.203 1.5-0.5 1.5h-5c-1.375 0-2.5 1.125-2.5 2.5v11c0 1.375 1.125 2.5 2.5 2.5h4.5c0.391 0 1-0.078 1 0.5zM24.5 14c0 0.266-0.109 0.516-0.297 0.703l-8.5 8.5c-0.187 0.187-0.438 0.297-0.703 0.297-0.547 0-1-0.453-1-1v-4.5h-7c-0.547 0-1-0.453-1-1v-6c0-0.547 0.453-1 1-1h7v-4.5c0-0.547 0.453-1 1-1 0.266 0 0.516 0.109 0.703 0.297l8.5 8.5c0.187 0.187 0.297 0.438 0.297 0.703z"></path>
</symbol>
<symbol id="icon-file-text-o" viewBox="0 0 24 28">
<path d="M22.937 5.938c0.578 0.578 1.062 1.734 1.062 2.562v18c0 0.828-0.672 1.5-1.5 1.5h-21c-0.828 0-1.5-0.672-1.5-1.5v-25c0-0.828 0.672-1.5 1.5-1.5h14c0.828 0 1.984 0.484 2.562 1.062zM16 2.125v5.875h5.875c-0.094-0.266-0.234-0.531-0.344-0.641l-4.891-4.891c-0.109-0.109-0.375-0.25-0.641-0.344zM22 26v-16h-6.5c-0.828 0-1.5-0.672-1.5-1.5v-6.5h-12v24h20zM6 12.5c0-0.281 0.219-0.5 0.5-0.5h11c0.281 0 0.5 0.219 0.5 0.5v1c0 0.281-0.219 0.5-0.5 0.5h-11c-0.281 0-0.5-0.219-0.5-0.5v-1zM17.5 16c0.281 0 0.5 0.219 0.5 0.5v1c0 0.281-0.219 0.5-0.5 0.5h-11c-0.281 0-0.5-0.219-0.5-0.5v-1c0-0.281 0.219-0.5 0.5-0.5h11zM17.5 20c0.281 0 0.5 0.219 0.5 0.5v1c0 0.281-0.219 0.5-0.5 0.5h-11c-0.281 0-0.5-0.219-0.5-0.5v-1c0-0.281 0.219-0.5 0.5-0.5h11z"></path>
</symbol>
<symbol id="icon-credit-card" viewBox="0 0 30 28">
<path d="M27.5 2c1.375 0 2.5 1.125 2.5 2.5v19c0 1.375-1.125 2.5-2.5 2.5h-25c-1.375 0-2.5-1.125-2.5-2.5v-19c0-1.375 1.125-2.5 2.5-2.5h25zM2.5 4c-0.266 0-0.5 0.234-0.5 0.5v3.5h26v-3.5c0-0.266-0.234-0.5-0.5-0.5h-25zM27.5 24c0.266 0 0.5-0.234 0.5-0.5v-9.5h-26v9.5c0 0.266 0.234 0.5 0.5 0.5h25zM4 22v-2h4v2h-4zM10 22v-2h6v2h-6z"></path>
</symbol>
<symbol id="icon-user" viewBox="0 0 512 512">
<path d="M431,432c-11.046,0-20-8.954-20-20s8.954-20,20-20s20,8.954,20,20S442.046,432,431,432z M496.689,344.607c-8.561-19.15-27.845-31.558-49.176-31.607h-62.372c-0.045,0-0.087,0-0.133,0c-22.5,0-42.13,13.26-50.029,33.807 c-1.051,2.734-2.336,6.178-3.677,10.193H200.356c-5.407,0-10.583,2.189-14.35,6.068l-34.356,35.388 c-7.567,7.794-7.529,20.203,0.085,27.95l35,35.612c3.76,3.826,8.9,5.981,14.264,5.981h65c11.046,0,20-8.954,20-20s-8.954-20-20-20 h-56.614l-15.428-15.698L208.814,397h137.491c9.214,0,17.235-6.295,19.426-15.244c1.618-6.607,3.648-12.959,6.584-20.596 c1.936-5.036,6.798-8.16,12.741-8.16c0.013,0,0.026,0,0.039,0h62.371c5.656,0.013,10.524,3.053,12.705,7.932 c5.369,12.012,11.78,30.608,11.828,50.986c0.048,20.529-6.356,39.551-11.739,51.894c-2.17,4.978-7.079,8.188-12.56,8.188 c-0.011,0-0.022,0-0.033,0h-63.125c-5.533-0.013-10.716-3.573-12.896-8.858c-2.339-5.671-4.366-12.146-6.197-19.797 c-2.571-10.742-13.367-17.366-24.105-14.796c-10.743,2.571-17.367,13.364-14.796,24.106c2.321,9.699,4.978,18.118,8.121,25.738 c8.399,20.364,27.939,33.555,49.827,33.606h63.125c0.043,0,0.083,0,0.126,0c21.351-0.001,40.647-12.63,49.18-32.201 c6.912-15.851,15.137-40.511,15.072-67.975C511.935,384.434,503.638,360.153,496.689,344.607z M151.5,492c0,11.046-8.954,20-20,20 H60.693c-18.329,0-35.472-8.153-47.032-22.369C2.042,475.345-2.464,456.789,1.298,438.723 c12.003-57.657,43.8-110.126,89.532-147.743c24.942-20.516,53.442-36.064,83.813-46.062C141.492,220.092,120,180.509,120,136 C120,61.01,181.009,0,256,0s136,61.01,136,136c0,44.469-21.455,84.021-54.556,108.851c3.35,1.104,6.684,2.268,9.995,3.512 c10.341,3.883,15.576,15.414,11.693,25.754c-3.883,10.341-15.414,15.578-25.754,11.693c-23.107-8.677-47.383-13.35-72.236-13.917 c-1.708,0.064-3.42,0.107-5.142,0.107c-1.707,0-3.404-0.042-5.097-0.105c-101.636,2.364-189.676,75.219-210.445,174.98 c-1.297,6.229,0.248,12.613,4.236,17.519c2.31,2.841,7.461,7.606,15.999,7.606H131.5C142.546,472,151.5,480.954,151.5,492z M251.311,231.884c1.562-0.028,3.125-0.051,4.689-0.051c1.56,0,3.117,0.024,4.674,0.052C311.446,229.438,352,187.367,352,136 c0-52.935-43.065-96-96-96s-96,43.065-96,96C160,187.362,200.546,229.43,251.311,231.884z"></path>
</symbol>
</defs>
</svg>
